<?xml version="1.0" encoding="UTF-8" standalone="no"?>
<score-partwise>
  <part-list>
    <score-part id="P1">
      <part-name print-object="no">Guitar</part-name>
      <part-abbreviation print-object="no">Gtr.</part-abbreviation>
    </score-part>
  </part-list>
  <part id="P1">
    <measure number="1">
      <print>
        <measure-numbering>none</measure-numbering>
      </print>
      <attributes>
        <divisions>1</divisions>
        <key print-object="no">
          <fifths>0</fifths>
          <mode>major</mode>
        </key>
        <time print-object="no">
          <beats>4</beats>
          <beat-type>4</beat-type>
        </time>
        <clef>
          <sign>TAB</sign>
          <line>5</line>
        </clef>
        <staff-details>
          <staff-lines>6</staff-lines>
          <staff-tuning line="1">
            <tuning-step>E</tuning-step>
            <tuning-octave>2</tuning-octave>
          </staff-tuning>
          <staff-tuning line="2">
            <tuning-step>A</tuning-step>
            <tuning-octave>2</tuning-octave>
          </staff-tuning>
          <staff-tuning line="3">
            <tuning-step>D</tuning-step>
            <tuning-octave>3</tuning-octave>
          </staff-tuning>
          <staff-tuning line="4">
            <tuning-step>G</tuning-step>
            <tuning-octave>3</tuning-octave>
          </staff-tuning>
          <staff-tuning line="5">
            <tuning-step>B</tuning-step>
            <tuning-octave>3</tuning-octave>
          </staff-tuning>
          <staff-tuning line="6">
            <tuning-step>E</tuning-step>
            <tuning-octave>4</tuning-octave>
          </staff-tuning>
        </staff-details>
      </attributes>
      <direction placement="above" directive="yes">
        <direction-type>
          <metronome>
            <beat-unit>quarter</beat-unit>
            <per-minute>126</per-minute>
          </metronome>
        </direction-type>
      </direction>
      <note>
        <rest />
        <duration>8590</duration>
        <voice>1</voice>
      </note>
      <note>
        <pitch>
          <step>G</step>
          <alter>1</alter>
          <octave>3</octave>
        </pitch>
        <duration>1</duration>
        <type>16th</type>
        <notations>
          <technical>
            <string>6</string>
            <fret>4</fret>
          </technical>
        </notations>
      </note>
      <note>
        <rest />
        <duration>8590</duration>
        <voice>1</voice>
      </note>
      <note>
        <pitch>
          <step>G</step>
          <alter>1</alter>
          <octave>3</octave>
        </pitch>
        <duration>1</duration>
        <type>16th</type>
        <notations>
          <technical>
            <string>6</string>
            <fret>4</fret>
          </technical>
        </notations>
      </note>
    </measure>
    <measure number="2">
      <print>
        <measure-numbering>none</measure-numbering>
      </print>
      <attributes>
        <divisions>1</divisions>
      </attributes>
      <note>
        <pitch>
          <step>G</step>
          <alter>1</alter>
          <octave>3</octave>
        </pitch>
        <duration>1</duration>
        <type>eighth</type>
        <notations>
          <technical>
            <string>6</string>
            <fret>4</fret>
          </technical>
        </notations>
      </note>
      <note>
        <pitch>
          <step>G</step>
          <alter>1</alter>
          <octave>3</octave>
        </pitch>
        <duration>1</duration>
        <type>16th</type>
        <notations>
          <technical>
            <string>6</string>
            <fret>4</fret>
          </technical>
        </notations>
      </note>
      <note>
        <pitch>
          <step>G</step>
          <alter>1</alter>
          <octave>3</octave>
        </pitch>
        <duration>1</duration>
        <type>quarter</type>
        <notations>
          <technical>
            <string>6</string>
            <fret>4</fret>
          </technical>
        </notations>
      </note>
      <note>
        <rest />
        <duration>8590</duration>
        <voice>1</voice>
      </note>
    </measure>
    <measure number="3">
      <print>
        <measure-numbering>none</measure-numbering>
      </print>
      <attributes>
        <divisions>1</divisions>
      </attributes>
      <note>
        <pitch>
          <step>F</step>
          <alter>1</alter>
          <octave>3</octave>
        </pitch>
        <duration>1</duration>
        <type>eighth</type>
        <notations>
          <technical>
            <string>6</string>
            <fret>2</fret>
          </technical>
        </notations>
      </note>
      <note>
        <chord />
        <pitch>
          <step>A</step>
          <octave>3</octave>
        </pitch>
        <duration>1</duration>
        <type>eighth</type>
        <notations>
          <technical>
            <string>5</string>
            <fret>0</fret>
          </technical>
        </notations>
      </note>
      <note>
        <pitch>
          <step>F</step>
          <alter>1</alter>
          <octave>3</octave>
        </pitch>
        <duration>1</duration>
        <type>eighth</type>
        <notations>
          <technical>
            <string>6</string>
            <fret>2</fret>
          </technical>
        </notations>
      </note>
      <note>
        <chord />
        <pitch>
          <step>A</step>
          <octave>3</octave>
        </pitch>
        <duration>1</duration>
        <type>eighth</type>
        <notations>
          <technical>
            <string>5</string>
            <fret>0</fret>
          </technical>
        </notations>
      </note>
      <note>
        <pitch>
          <step>F</step>
          <alter>1</alter>
          <octave>3</octave>
        </pitch>
        <duration>1</duration>
        <type>16th</type>
        <notations>
          <technical>
            <string>6</string>
            <fret>2</fret>
          </technical>
        </notations>
      </note>
      <note>
        <chord />
        <pitch>
          <step>A</step>
          <octave>3</octave>
        </pitch>
        <duration>1</duration>
        <type>16th</type>
        <notations>
          <technical>
            <string>5</string>
            <fret>0</fret>
          </technical>
        </notations>
      </note>
      <note>
        <pitch>
          <step>F</step>
          <alter>1</alter>
          <octave>3</octave>
        </pitch>
        <duration>1</duration>
        <type>eighth</type>
        <notations>
          <technical>
            <string>6</string>
            <fret>2</fret>
          </technical>
        </notations>
      </note>
    </measure>
    <measure number="4">
      <print>
        <measure-numbering>none</measure-numbering>
      </print>
      <attributes>
        <divisions>1</divisions>
      </attributes>
      <note>
        <pitch>
          <step>F</step>
          <alter>1</alter>
          <octave>3</octave>
        </pitch>
        <duration>1</duration>
        <type>eighth</type>
        <notations>
          <technical>
            <string>6</string>
            <fret>2</fret>
          </technical>
        </notations>
      </note>
      <note>
        <chord />
        <pitch>
          <step>A</step>
          <octave>3</octave>
        </pitch>
        <duration>1</duration>
        <type>eighth</type>
        <notations>
          <technical>
            <string>5</string>
            <fret>0</fret>
          </technical>
        </notations>
      </note>
      <note>
        <pitch>
          <step>F</step>
          <alter>1</alter>
          <octave>3</octave>
        </pitch>
        <duration>1</duration>
        <type>eighth</type>
        <notations>
          <technical>
            <string>6</string>
            <fret>2</fret>
          </technical>
        </notations>
      </note>
      <note>
        <pitch>
          <step>F</step>
          <alter>1</alter>
          <octave>3</octave>
        </pitch>
        <duration>1</duration>
        <type>16th</type>
        <notations>
          <technical>
            <string>6</string>
            <fret>2</fret>
          </technical>
        </notations>
      </note>
      <note>
        <pitch>
          <step>F</step>
          <alter>1</alter>
          <octave>3</octave>
        </pitch>
        <duration>1</duration>
        <type>eighth</type>
        <notations>
          <technical>
            <string>6</string>
            <fret>2</fret>
          </technical>
        </notations>
      </note>
    </measure>
    <measure number="5">
      <print>
        <measure-numbering>none</measure-numbering>
      </print>
      <attributes>
        <divisions>1</divisions>
      </attributes>
      <note>
        <pitch>
          <step>E</step>
          <octave>3</octave>
        </pitch>
        <duration>1</duration>
        <type>eighth</type>
        <notations>
          <technical>
            <string>6</string>
            <fret>0</fret>
          </technical>
        </notations>
      </note>
      <note>
        <chord />
        <pitch>
          <step>A</step>
          <octave>3</octave>
        </pitch>
        <duration>1</duration>
        <type>eighth</type>
        <notations>
          <technical>
            <string>5</string>
            <fret>0</fret>
          </technical>
        </notations>
      </note>
      <note>
        <pitch>
          <step>E</step>
          <octave>3</octave>
        </pitch>
        <duration>1</duration>
        <type>half</type>
        <notations>
          <technical>
            <string>6</string>
            <fret>0</fret>
          </technical>
        </notations>
      </note>
      <note>
        <chord />
        <pitch>
          <step>A</step>
          <octave>3</octave>
        </pitch>
        <duration>1</duration>
        <type>half</type>
        <notations>
          <technical>
            <string>5</string>
            <fret>0</fret>
          </technical>
        </notations>
      </note>
      <note>
        <chord />
        <pitch>
          <step>E</step>
          <octave>4</octave>
        </pitch>
        <duration>1</duration>
        <type>half</type>
        <notations>
          <technical>
            <string>4</string>
            <fret>2</fret>
          </technical>
        </notations>
      </note>
      <note>
        <pitch>
          <step>E</step>
          <octave>3</octave>
        </pitch>
        <duration>1</duration>
        <type>eighth</type>
        <notations>
          <technical>
            <string>6</string>
            <fret>0</fret>
          </technical>
        </notations>
      </note>
      <note>
        <chord />
        <pitch>
          <step>B</step>
          <octave>3</octave>
        </pitch>
        <duration>1</duration>
        <type>eighth</type>
        <notations>
          <technical>
            <string>5</string>
            <fret>2</fret>
          </technical>
        </notations>
      </note>
      <note>
        <pitch>
          <step>E</step>
          <octave>3</octave>
        </pitch>
        <duration>1</duration>
        <type>quarter</type>
        <notations>
          <technical>
            <string>6</string>
            <fret>0</fret>
          </technical>
        </notations>
      </note>
      <note>
        <chord />
        <pitch>
          <step>C</step>
          <alter>1</alter>
          <octave>4</octave>
        </pitch>
        <duration>1</duration>
        <type>quarter</type>
        <notations>
          <technical>
            <string>5</string>
            <fret>4</fret>
          </technical>
        </notations>
      </note>
    </measure>
    <measure number="6">
      <print>
        <measure-numbering>none</measure-numbering>
      </print>
      <attributes>
        <divisions>1</divisions>
      </attributes>
      <note>
        <pitch>
          <step>E</step>
          <octave>3</octave>
        </pitch>
        <duration>1</duration>
        <type>eighth</type>
        <notations>
          <technical>
            <string>6</string>
            <fret>0</fret>
          </technical>
        </notations>
      </note>
      <note>
        <chord />
        <pitch>
          <step>C</step>
          <alter>1</alter>
          <octave>4</octave>
        </pitch>
        <duration>1</duration>
        <type>eighth</type>
        <notations>
          <technical>
            <string>5</string>
            <fret>4</fret>
          </technical>
        </notations>
      </note>
      <note>
        <pitch>
          <step>E</step>
          <octave>3</octave>
        </pitch>
        <duration>1</duration>
        <type>eighth</type>
        <notations>
          <technical>
            <string>6</string>
            <fret>0</fret>
          </technical>
        </notations>
      </note>
      <note>
        <chord />
        <pitch>
          <step>C</step>
          <alter>1</alter>
          <octave>4</octave>
        </pitch>
        <duration>1</duration>
        <type>eighth</type>
        <notations>
          <technical>
            <string>5</string>
            <fret>4</fret>
          </technical>
        </notations>
      </note>
      <note>
        <pitch>
          <step>C</step>
          <alter>1</alter>
          <octave>4</octave>
        </pitch>
        <duration>1</duration>
        <type>16th</type>
        <notations>
          <technical>
            <string>5</string>
            <fret>4</fret>
          </technical>
        </notations>
      </note>
      <note>
        <pitch>
          <step>C</step>
          <alter>1</alter>
          <octave>4</octave>
        </pitch>
        <duration>1</duration>
        <type>16th</type>
        <notations>
          <technical>
            <string>5</string>
            <fret>4</fret>
          </technical>
        </notations>
      </note>
    </measure>
    <measure number="7">
      <print>
        <measure-numbering>none</measure-numbering>
      </print>
      <attributes>
        <divisions>1</divisions>
      </attributes>
      <note>
        <pitch>
          <step>C</step>
          <alter>1</alter>
          <octave>4</octave>
        </pitch>
        <duration>1</duration>
        <type>eighth</type>
        <notations>
          <technical>
            <string>5</string>
            <fret>4</fret>
          </technical>
        </notations>
      </note>
      <note>
        <chord />
        <pitch>
          <step>B</step>
          <octave>4</octave>
        </pitch>
        <duration>1</duration>
        <type>eighth</type>
        <notations>
          <technical>
            <string>3</string>
            <fret>4</fret>
          </technical>
        </notations>
      </note>
      <note>
        <pitch>
          <step>D</step>
          <alter>1</alter>
          <octave>4</octave>
        </pitch>
        <duration>1</duration>
        <type>16th</type>
        <notations>
          <technical>
            <string>5</string>
            <fret>6</fret>
          </technical>
        </notations>
      </note>
      <note>
        <pitch>
          <step>E</step>
          <octave>4</octave>
        </pitch>
        <duration>1</duration>
        <type>eighth</type>
        <notations>
          <technical>
            <string>5</string>
            <fret>7</fret>
          </technical>
        </notations>
      </note>
      <note>
        <pitch>
          <step>F</step>
          <alter>1</alter>
          <octave>4</octave>
        </pitch>
        <duration>1</duration>
        <type>eighth</type>
        <notations>
          <technical>
            <string>4</string>
            <fret>4</fret>
          </technical>
        </notations>
      </note>
    </measure>
    <measure number="8">
      <print>
        <measure-numbering>none</measure-numbering>
      </print>
      <attributes>
        <divisions>1</divisions>
      </attributes>
      <note>
        <pitch>
          <step>F</step>
          <alter>1</alter>
          <octave>4</octave>
        </pitch>
        <duration>1</duration>
        <type>eighth</type>
        <notations>
          <technical>
            <string>4</string>
            <fret>4</fret>
          </technical>
        </notations>
      </note>
      <note>
        <pitch>
          <step>G</step>
          <alter>1</alter>
          <octave>4</octave>
        </pitch>
        <duration>1</duration>
        <type>eighth</type>
        <notations>
          <technical>
            <string>4</string>
            <fret>6</fret>
          </technical>
        </notations>
      </note>
      <note>
        <pitch>
          <step>B</step>
          <octave>4</octave>
        </pitch>
        <duration>1</duration>
        <type>eighth</type>
        <notations>
          <technical>
            <string>3</string>
            <fret>4</fret>
          </technical>
        </notations>
      </note>
      <note>
        <chord />
        <pitch>
          <step>G</step>
          <alter>1</alter>
          <octave>5</octave>
        </pitch>
        <duration>1</duration>
        <type>eighth</type>
        <notations>
          <technical>
            <string>1</string>
            <fret>4</fret>
          </technical>
        </notations>
      </note>
      <note>
        <pitch>
          <step>B</step>
          <octave>4</octave>
        </pitch>
        <duration>1</duration>
        <type>16th</type>
        <notations>
          <technical>
            <string>3</string>
            <fret>4</fret>
          </technical>
        </notations>
      </note>
    </measure>
    <measure number="9">
      <print>
        <measure-numbering>none</measure-numbering>
      </print>
      <attributes>
        <divisions>1</divisions>
      </attributes>
      <note>
        <pitch>
          <step>B</step>
          <octave>4</octave>
        </pitch>
        <duration>1</duration>
        <type>eighth</type>
        <notations>
          <technical>
            <string>3</string>
            <fret>4</fret>
          </technical>
        </notations>
      </note>
      <note>
        <pitch>
          <step>B</step>
          <octave>4</octave>
        </pitch>
        <duration>1</duration>
        <type>16th</type>
        <notations>
          <technical>
            <string>3</string>
            <fret>4</fret>
          </technical>
        </notations>
      </note>
      <note>
        <pitch>
          <step>B</step>
          <octave>4</octave>
        </pitch>
        <duration>1</duration>
        <type>16th</type>
        <notations>
          <technical>
            <string>3</string>
            <fret>4</fret>
          </technical>
        </notations>
      </note>
      <note>
        <pitch>
          <step>C</step>
          <alter>1</alter>
          <octave>5</octave>
        </pitch>
        <duration>1</duration>
        <type>eighth</type>
        <notations>
          <technical>
            <string>3</string>
            <fret>6</fret>
          </technical>
        </notations>
      </note>
    </measure>
    <measure number="10">
      <print>
        <measure-numbering>none</measure-numbering>
      </print>
      <attributes>
        <divisions>1</divisions>
      </attributes>
      <note>
        <pitch>
          <step>C</step>
          <alter>1</alter>
          <octave>5</octave>
        </pitch>
        <duration>1</duration>
        <type>quarter</type>
        <notations>
          <technical>
            <string>3</string>
            <fret>6</fret>
          </technical>
        </notations>
      </note>
      <note>
        <pitch>
          <step>D</step>
          <octave>4</octave>
        </pitch>
        <duration>1</duration>
        <type>quarter</type>
        <notations>
          <technical>
            <string>5</string>
            <fret>5</fret>
          </technical>
        </notations>
      </note>
      <note>
        <chord />
        <pitch>
          <step>B</step>
          <octave>4</octave>
        </pitch>
        <duration>1</duration>
        <type>quarter</type>
        <notations>
          <technical>
            <string>3</string>
            <fret>4</fret>
          </technical>
        </notations>
      </note>
      <note>
        <chord />
        <pitch>
          <step>D</step>
          <octave>5</octave>
        </pitch>
        <duration>1</duration>
        <type>quarter</type>
        <notations>
          <technical>
            <string>2</string>
            <fret>3</fret>
          </technical>
        </notations>
      </note>
      <note>
        <pitch>
          <step>C</step>
          <alter>1</alter>
          <octave>4</octave>
        </pitch>
        <duration>1</duration>
        <type>quarter</type>
        <notations>
          <technical>
            <string>5</string>
            <fret>4</fret>
          </technical>
        </notations>
      </note>
      <note>
        <chord />
        <pitch>
          <step>G</step>
          <alter>1</alter>
          <octave>4</octave>
        </pitch>
        <duration>1</duration>
        <type>quarter</type>
        <notations>
          <technical>
            <string>4</string>
            <fret>6</fret>
          </technical>
        </notations>
      </note>
      <note>
        <chord />
        <pitch>
          <step>B</step>
          <octave>4</octave>
        </pitch>
        <duration>1</duration>
        <type>quarter</type>
        <notations>
          <technical>
            <string>3</string>
            <fret>4</fret>
          </technical>
        </notations>
      </note>
      <note>
        <chord />
        <pitch>
          <step>D</step>
          <alter>1</alter>
          <octave>5</octave>
        </pitch>
        <duration>1</duration>
        <type>quarter</type>
        <notations>
          <technical>
            <string>2</string>
            <fret>4</fret>
          </technical>
        </notations>
      </note>
      <note>
        <rest />
        <duration>8590</duration>
        <voice>1</voice>
      </note>
    </measure>
    <measure number="11">
      <print>
        <measure-numbering>none</measure-numbering>
      </print>
      <attributes>
        <divisions>1</divisions>
      </attributes>
      <note>
        <pitch>
          <step>F</step>
          <alter>1</alter>
          <octave>4</octave>
        </pitch>
        <duration>1</duration>
        <type>eighth</type>
        <notations>
          <technical>
            <string>4</string>
            <fret>4</fret>
          </technical>
        </notations>
      </note>
      <note>
        <pitch>
          <step>G</step>
          <alter>1</alter>
          <octave>4</octave>
        </pitch>
        <duration>1</duration>
        <type>16th</type>
        <notations>
          <technical>
            <string>4</string>
            <fret>6</fret>
          </technical>
        </notations>
      </note>
      <note>
        <pitch>
          <step>G</step>
          <alter>1</alter>
          <octave>4</octave>
        </pitch>
        <duration>1</duration>
        <type>eighth</type>
        <notations>
          <technical>
            <string>4</string>
            <fret>6</fret>
          </technical>
        </notations>
      </note>
      <note>
        <chord />
        <pitch>
          <step>B</step>
          <octave>4</octave>
        </pitch>
        <duration>1</duration>
        <type>eighth</type>
        <notations>
          <technical>
            <string>3</string>
            <fret>4</fret>
          </technical>
        </notations>
      </note>
      <note>
        <pitch>
          <step>G</step>
          <alter>1</alter>
          <octave>4</octave>
        </pitch>
        <duration>1</duration>
        <type>quarter</type>
        <notations>
          <technical>
            <string>4</string>
            <fret>6</fret>
          </technical>
        </notations>
      </note>
      <note>
        <chord />
        <pitch>
          <step>B</step>
          <octave>4</octave>
        </pitch>
        <duration>1</duration>
        <type>quarter</type>
        <notations>
          <technical>
            <string>3</string>
            <fret>4</fret>
          </technical>
        </notations>
      </note>
    </measure>
    <measure number="12">
      <print>
        <measure-numbering>none</measure-numbering>
      </print>
      <attributes>
        <divisions>1</divisions>
      </attributes>
      <note>
        <pitch>
          <step>F</step>
          <alter>1</alter>
          <octave>4</octave>
        </pitch>
        <duration>1</duration>
        <type>half</type>
        <notations>
          <technical>
            <string>4</string>
            <fret>4</fret>
          </technical>
        </notations>
      </note>
      <note>
        <pitch>
          <step>F</step>
          <alter>1</alter>
          <octave>4</octave>
        </pitch>
        <duration>1</duration>
        <type>eighth</type>
        <notations>
          <technical>
            <string>4</string>
            <fret>4</fret>
          </technical>
        </notations>
      </note>
      <note>
        <pitch>
          <step>G</step>
          <alter>1</alter>
          <octave>4</octave>
        </pitch>
        <duration>1</duration>
        <type>quarter</type>
        <notations>
          <technical>
            <string>4</string>
            <fret>6</fret>
          </technical>
        </notations>
      </note>
      <note>
        <pitch>
          <step>B</step>
          <octave>4</octave>
        </pitch>
        <duration>1</duration>
        <type>16th</type>
        <notations>
          <technical>
            <string>3</string>
            <fret>4</fret>
          </technical>
        </notations>
      </note>
    </measure>
    <measure number="13">
      <print>
        <measure-numbering>none</measure-numbering>
      </print>
      <attributes>
        <divisions>1</divisions>
      </attributes>
      <note>
        <pitch>
          <step>B</step>
          <octave>4</octave>
        </pitch>
        <duration>1</duration>
        <type>16th</type>
        <notations>
          <technical>
            <string>3</string>
            <fret>4</fret>
          </technical>
        </notations>
      </note>
      <note>
        <rest />
        <duration>8590</duration>
        <voice>1</voice>
      </note>
      <note>
        <pitch>
          <step>G</step>
          <alter>1</alter>
          <octave>4</octave>
        </pitch>
        <duration>1</duration>
        <type>eighth</type>
        <notations>
          <technical>
            <string>4</string>
            <fret>6</fret>
          </technical>
        </notations>
      </note>
      <note>
        <pitch>
          <step>C</step>
          <alter>1</alter>
          <octave>5</octave>
        </pitch>
        <duration>1</duration>
        <type>eighth</type>
        <notations>
          <technical>
            <string>3</string>
            <fret>6</fret>
          </technical>
        </notations>
      </note>
    </measure>
    <measure number="14">
      <print>
        <measure-numbering>none</measure-numbering>
      </print>
      <attributes>
        <divisions>1</divisions>
      </attributes>
      <note>
        <rest />
        <duration>8590</duration>
        <voice>1</voice>
      </note>
      <note>
        <pitch>
          <step>C</step>
          <alter>1</alter>
          <octave>5</octave>
        </pitch>
        <duration>1</duration>
        <type>quarter</type>
        <notations>
          <technical>
            <string>3</string>
            <fret>6</fret>
          </technical>
        </notations>
      </note>
      <note>
        <pitch>
          <step>E</step>
          <octave>5</octave>
        </pitch>
        <duration>1</duration>
        <type>eighth</type>
        <notations>
          <technical>
            <string>2</string>
            <fret>5</fret>
          </technical>
        </notations>
      </note>
      <note>
        <pitch>
          <step>C</step>
          <alter>1</alter>
          <octave>5</octave>
        </pitch>
        <duration>1</duration>
        <type>eighth</type>
        <notations>
          <technical>
            <string>3</string>
            <fret>6</fret>
          </technical>
        </notations>
      </note>
      <note>
        <chord />
        <pitch>
          <step>E</step>
          <octave>5</octave>
        </pitch>
        <duration>1</duration>
        <type>eighth</type>
        <notations>
          <technical>
            <string>2</string>
            <fret>5</fret>
          </technical>
        </notations>
      </note>
    </measure>
    <measure number="15">
      <print>
        <measure-numbering>none</measure-numbering>
      </print>
      <attributes>
        <divisions>1</divisions>
      </attributes>
      <note>
        <rest />
        <duration>8590</duration>
        <voice>1</voice>
      </note>
      <note>
        <pitch>
          <step>D</step>
          <alter>1</alter>
          <octave>5</octave>
        </pitch>
        <duration>1</duration>
        <type>eighth</type>
        <notations>
          <technical>
            <string>2</string>
            <fret>4</fret>
          </technical>
        </notations>
      </note>
      <note>
        <pitch>
          <step>C</step>
          <alter>1</alter>
          <octave>5</octave>
        </pitch>
        <duration>1</duration>
        <type>eighth</type>
        <notations>
          <technical>
            <string>3</string>
            <fret>6</fret>
          </technical>
        </notations>
      </note>
      <note>
        <pitch>
          <step>B</step>
          <octave>4</octave>
        </pitch>
        <duration>1</duration>
        <type>eighth</type>
        <notations>
          <technical>
            <string>3</string>
            <fret>4</fret>
          </technical>
        </notations>
      </note>
    </measure>
    <measure number="16">
      <print>
        <measure-numbering>none</measure-numbering>
      </print>
      <attributes>
        <divisions>1</divisions>
      </attributes>
      <note>
        <rest />
        <duration>8590</duration>
        <voice>1</voice>
      </note>
      <note>
        <rest />
        <duration>8590</duration>
        <voice>1</voice>
      </note>
      <note>
        <rest />
        <duration>8590</duration>
        <voice>1</voice>
      </note>
      <note>
        <pitch>
          <step>G</step>
          <alter>1</alter>
          <octave>4</octave>
        </pitch>
        <duration>1</duration>
        <type>eighth</type>
        <notations>
          <technical>
            <string>4</string>
            <fret>6</fret>
          </technical>
        </notations>
      </note>
    </measure>
    <measure number="17">
      <print>
        <measure-numbering>none</measure-numbering>
      </print>
      <attributes>
        <divisions>1</divisions>
      </attributes>
      <note>
        <pitch>
          <step>G</step>
          <alter>1</alter>
          <octave>4</octave>
        </pitch>
        <duration>1</duration>
        <type>eighth</type>
        <notations>
          <technical>
            <string>4</string>
            <fret>6</fret>
          </technical>
        </notations>
      </note>
      <note>
        <pitch>
          <step>B</step>
          <octave>4</octave>
        </pitch>
        <duration>1</duration>
        <type>16th</type>
        <notations>
          <technical>
            <string>3</string>
            <fret>4</fret>
          </technical>
        </notations>
      </note>
      <note>
        <pitch>
          <step>A</step>
          <octave>4</octave>
        </pitch>
        <duration>1</duration>
        <type>quarter</type>
        <notations>
          <technical>
            <string>4</string>
            <fret>7</fret>
          </technical>
        </notations>
      </note>
      <note>
        <rest />
        <duration>8590</duration>
        <voice>1</voice>
      </note>
    </measure>
    <measure number="18">
      <print>
        <measure-numbering>none</measure-numbering>
      </print>
      <attributes>
        <divisions>1</divisions>
      </attributes>
      <note>
        <pitch>
          <step>F</step>
          <alter>1</alter>
          <octave>4</octave>
        </pitch>
        <duration>1</duration>
        <type>eighth</type>
        <notations>
          <technical>
            <string>4</string>
            <fret>4</fret>
          </technical>
        </notations>
      </note>
      <note>
        <pitch>
          <step>G</step>
          <alter>1</alter>
          <octave>4</octave>
        </pitch>
        <duration>1</duration>
        <type>16th</type>
        <notations>
          <technical>
            <string>4</string>
            <fret>6</fret>
          </technical>
        </notations>
      </note>
      <note>
        <pitch>
          <step>B</step>
          <octave>4</octave>
        </pitch>
        <duration>1</duration>
        <type>16th</type>
        <notations>
          <technical>
            <string>3</string>
            <fret>4</fret>
          </technical>
        </notations>
      </note>
      <note>
        <pitch>
          <step>B</step>
          <octave>4</octave>
        </pitch>
        <duration>1</duration>
        <type>quarter</type>
        <notations>
          <technical>
            <string>3</string>
            <fret>4</fret>
          </technical>
        </notations>
      </note>
    </measure>
    <measure number="19">
      <print>
        <measure-numbering>none</measure-numbering>
      </print>
      <attributes>
        <divisions>1</divisions>
      </attributes>
      <note>
        <pitch>
          <step>E</step>
          <octave>4</octave>
        </pitch>
        <duration>1</duration>
        <type>quarter</type>
        <notations>
          <technical>
            <string>5</string>
            <fret>7</fret>
          </technical>
        </notations>
      </note>
      <note>
        <pitch>
          <step>F</step>
          <alter>1</alter>
          <octave>4</octave>
        </pitch>
        <duration>1</duration>
        <type>eighth</type>
        <notations>
          <technical>
            <string>4</string>
            <fret>4</fret>
          </technical>
        </notations>
      </note>
      <note>
        <pitch>
          <step>G</step>
          <alter>1</alter>
          <octave>4</octave>
        </pitch>
        <duration>1</duration>
        <type>eighth</type>
        <notations>
          <technical>
            <string>4</string>
            <fret>6</fret>
          </technical>
        </notations>
      </note>
      <note>
        <pitch>
          <step>G</step>
          <alter>1</alter>
          <octave>4</octave>
        </pitch>
        <duration>1</duration>
        <type>16th</type>
        <notations>
          <technical>
            <string>4</string>
            <fret>6</fret>
          </technical>
        </notations>
      </note>
      <note>
        <chord />
        <pitch>
          <step>B</step>
          <octave>4</octave>
        </pitch>
        <duration>1</duration>
        <type>16th</type>
        <notations>
          <technical>
            <string>3</string>
            <fret>4</fret>
          </technical>
        </notations>
      </note>
    </measure>
    <measure number="20">
      <print>
        <measure-numbering>none</measure-numbering>
      </print>
      <attributes>
        <divisions>1</divisions>
      </attributes>
      <note>
        <pitch>
          <step>G</step>
          <alter>1</alter>
          <octave>4</octave>
        </pitch>
        <duration>1</duration>
        <type>eighth</type>
        <notations>
          <technical>
            <string>4</string>
            <fret>6</fret>
          </technical>
        </notations>
      </note>
      <note>
        <chord />
        <pitch>
          <step>B</step>
          <octave>4</octave>
        </pitch>
        <duration>1</duration>
        <type>eighth</type>
        <notations>
          <technical>
            <string>3</string>
            <fret>4</fret>
          </technical>
        </notations>
      </note>
      <note>
        <pitch>
          <step>F</step>
          <alter>1</alter>
          <octave>4</octave>
        </pitch>
        <duration>1</duration>
        <type>eighth</type>
        <notations>
          <technical>
            <string>4</string>
            <fret>4</fret>
          </technical>
        </notations>
      </note>
      <note>
        <pitch>
          <step>D</step>
          <alter>1</alter>
          <octave>4</octave>
        </pitch>
        <duration>1</duration>
        <type>eighth</type>
        <notations>
          <technical>
            <string>5</string>
            <fret>6</fret>
          </technical>
        </notations>
      </note>
      <note>
        <chord />
        <pitch>
          <step>F</step>
          <alter>1</alter>
          <octave>4</octave>
        </pitch>
        <duration>1</duration>
        <type>eighth</type>
        <notations>
          <technical>
            <string>4</string>
            <fret>4</fret>
          </technical>
        </notations>
      </note>
      <note>
        <pitch>
          <step>D</step>
          <alter>1</alter>
          <octave>4</octave>
        </pitch>
        <duration>1</duration>
        <type>16th</type>
        <notations>
          <technical>
            <string>5</string>
            <fret>6</fret>
          </technical>
        </notations>
      </note>
      <note>
        <chord />
        <pitch>
          <step>F</step>
          <alter>1</alter>
          <octave>4</octave>
        </pitch>
        <duration>1</duration>
        <type>16th</type>
        <notations>
          <technical>
            <string>4</string>
            <fret>4</fret>
          </technical>
        </notations>
      </note>
    </measure>
    <measure number="21">
      <print>
        <measure-numbering>none</measure-numbering>
      </print>
      <attributes>
        <divisions>1</divisions>
      </attributes>
      <note>
        <pitch>
          <step>D</step>
          <alter>1</alter>
          <octave>4</octave>
        </pitch>
        <duration>1</duration>
        <type>eighth</type>
        <notations>
          <technical>
            <string>5</string>
            <fret>6</fret>
          </technical>
        </notations>
      </note>
      <note>
        <chord />
        <pitch>
          <step>F</step>
          <alter>1</alter>
          <octave>4</octave>
        </pitch>
        <duration>1</duration>
        <type>eighth</type>
        <notations>
          <technical>
            <string>4</string>
            <fret>4</fret>
          </technical>
        </notations>
      </note>
      <note>
        <pitch>
          <step>C</step>
          <alter>1</alter>
          <octave>4</octave>
        </pitch>
        <duration>1</duration>
        <type>eighth</type>
        <notations>
          <technical>
            <string>5</string>
            <fret>4</fret>
          </technical>
        </notations>
      </note>
      <note>
        <pitch>
          <step>C</step>
          <alter>1</alter>
          <octave>4</octave>
        </pitch>
        <duration>1</duration>
        <type>16th</type>
        <notations>
          <technical>
            <string>5</string>
            <fret>4</fret>
          </technical>
        </notations>
      </note>
      <note>
        <chord />
        <pitch>
          <step>F</step>
          <alter>1</alter>
          <octave>4</octave>
        </pitch>
        <duration>1</duration>
        <type>16th</type>
        <notations>
          <technical>
            <string>4</string>
            <fret>4</fret>
          </technical>
        </notations>
      </note>
      <note>
        <pitch>
          <step>C</step>
          <alter>1</alter>
          <octave>4</octave>
        </pitch>
        <duration>1</duration>
        <type>16th</type>
        <notations>
          <technical>
            <string>5</string>
            <fret>4</fret>
          </technical>
        </notations>
      </note>
      <note>
        <chord />
        <pitch>
          <step>F</step>
          <alter>1</alter>
          <octave>4</octave>
        </pitch>
        <duration>1</duration>
        <type>16th</type>
        <notations>
          <technical>
            <string>4</string>
            <fret>4</fret>
          </technical>
        </notations>
      </note>
    </measure>
    <measure number="22">
      <print>
        <measure-numbering>none</measure-numbering>
      </print>
      <attributes>
        <divisions>1</divisions>
      </attributes>
      <note>
        <pitch>
          <step>C</step>
          <alter>1</alter>
          <octave>4</octave>
        </pitch>
        <duration>1</duration>
        <type>16th</type>
        <notations>
          <technical>
            <string>5</string>
            <fret>4</fret>
          </technical>
        </notations>
      </note>
      <note>
        <pitch>
          <step>C</step>
          <alter>1</alter>
          <octave>4</octave>
        </pitch>
        <duration>1</duration>
        <type>eighth</type>
        <notations>
          <technical>
            <string>5</string>
            <fret>4</fret>
          </technical>
        </notations>
      </note>
      <note>
        <chord />
        <pitch>
          <step>F</step>
          <alter>1</alter>
          <octave>4</octave>
        </pitch>
        <duration>1</duration>
        <type>eighth</type>
        <notations>
          <technical>
            <string>4</string>
            <fret>4</fret>
          </technical>
        </notations>
      </note>
      <note>
        <pitch>
          <step>D</step>
          <alter>1</alter>
          <octave>4</octave>
        </pitch>
        <duration>1</duration>
        <type>half</type>
        <notations>
          <technical>
            <string>5</string>
            <fret>6</fret>
          </technical>
        </notations>
      </note>
      <note>
        <pitch>
          <step>D</step>
          <alter>1</alter>
          <octave>4</octave>
        </pitch>
        <duration>1</duration>
        <type>eighth</type>
        <notations>
          <technical>
            <string>5</string>
            <fret>6</fret>
          </technical>
        </notations>
      </note>
    </measure>
  </part>
</score-partwise>
